<svg xmlns="http://www.w3.org/2000/svg" viewBox="0 0 1200 600" role="img" aria-labelledby="title desc"><title id="title">Viação Motta Virtual</title><desc id="desc">Logo vetorial verde, amarela e branca com grande M amarelo, nome em branco, linha amarela e slogan.</desc><defs><linearGradient id="bg" x1="0" y1="0" x2="1" y2="1"><stop offset="0" stop-color="#087b34"/><stop offset="0.55" stop-color="#045927"/><stop offset="1" stop-color="#012f18"/></linearGradient><linearGradient id="gold" x1="0" y1="0" x2="0" y2="1"><stop offset="0" stop-color="#ffe85a"/><stop offset="0.5" stop-color="#ffd21a"/><stop offset="1" stop-color="#e4ad00"/></linearGradient><filter id="shadow" x="-20%" y="-20%" width="140%" height="140%"><feDropShadow dx="0" dy="10" stdDeviation="10" flood-color="#00160b" flood-opacity="0.48"/></filter></defs><rect width="1200" height="600" rx="46" fill="url(#bg)"/><path d="M150 250C220 95 430 45 610 100" fill="none" stroke="#149747" stroke-width="28" stroke-linecap="round" opacity="0.95"/><path d="M535 98C760 48 1010 135 1040 270" fill="none" stroke="#ffd21a" stroke-width="28" stroke-linecap="round" opacity="0.98"/><g filter="url(#shadow)"><path d="M225 340L355 105H455L600 300L745 105H845L975 340H845L785 215L665 350H535L415 215L355 340Z" fill="url(#gold)" stroke="#c89500" stroke-width="8" stroke-linejoin="round"/><path d="M363 125L246 328H302L414 156L555 326H605L443 126Z" fill="#fff2a3" opacity="0.24"/></g><text x="600" y="425" text-anchor="middle" fill="#fff" font-family="Arial Black,Arial,Helvetica,sans-serif" font-size="76" font-weight="900" letter-spacing="2">VIAÇÃO MOTTA</text><text x="600" y="478" text-anchor="middle" fill="#fff" font-family="Arial,Helvetica,sans-serif" font-size="35" font-weight="800" letter-spacing="14">VIRTUAL</text><line x1="180" y1="512" x2="1020" y2="512" stroke="#ffd21a" stroke-width="9" stroke-linecap="round"/><text x="600" y="558" text-anchor="middle" fill="#fff" font-family="Arial,Helvetica,sans-serif" font-size="30" font-weight="800" letter-spacing="1">QUALIDADE, CONFORTO E SEGURANÇA</text></svg>